<mxfile host="65bd71144e">
    <diagram id="ktSTNNbMhXlv0F0ixP2M" name="Page-1">
        <mxGraphModel dx="862" dy="507" grid="1" gridSize="10" guides="1" tooltips="1" connect="1" arrows="1" fold="1" page="1" pageScale="1" pageWidth="850" pageHeight="1100" math="0" shadow="0">
            <root>
                <mxCell id="0"/>
                <mxCell id="1" parent="0"/>
                <mxCell id="25" value="Book" style="swimlane;fontStyle=1;align=center;verticalAlign=top;childLayout=stackLayout;horizontal=1;startSize=26;horizontalStack=0;resizeParent=1;resizeParentMax=0;resizeLast=0;collapsible=1;marginBottom=0;" parent="1" vertex="1">
                    <mxGeometry x="167" y="860" width="180" height="120" as="geometry"/>
                </mxCell>
                <mxCell id="26" value="+ name: string" style="text;strokeColor=none;fillColor=none;align=left;verticalAlign=top;spacingLeft=4;spacingRight=4;overflow=hidden;rotatable=0;points=[[0,0.5],[1,0.5]];portConstraint=eastwest;" parent="25" vertex="1">
                    <mxGeometry y="26" width="180" height="26" as="geometry"/>
                </mxCell>
                <mxCell id="27" value="" style="line;strokeWidth=1;fillColor=none;align=left;verticalAlign=middle;spacingTop=-1;spacingLeft=3;spacingRight=3;rotatable=0;labelPosition=right;points=[];portConstraint=eastwest;strokeColor=inherit;" parent="25" vertex="1">
                    <mxGeometry y="52" width="180" height="8" as="geometry"/>
                </mxCell>
                <mxCell id="28" value="+ Book():&#10;+ Book(const string &amp; name):&#10;+ getName(type): string" style="text;strokeColor=none;fillColor=none;align=left;verticalAlign=top;spacingLeft=4;spacingRight=4;overflow=hidden;rotatable=0;points=[[0,0.5],[1,0.5]];portConstraint=eastwest;" parent="25" vertex="1">
                    <mxGeometry y="60" width="180" height="60" as="geometry"/>
                </mxCell>
                <mxCell id="29" value="BookShelf" style="swimlane;fontStyle=1;align=center;verticalAlign=top;childLayout=stackLayout;horizontal=1;startSize=30;horizontalStack=0;resizeParent=1;resizeParentMax=0;resizeLast=0;collapsible=1;marginBottom=0;" parent="1" vertex="1">
                    <mxGeometry x="160" y="610" width="210" height="158" as="geometry"/>
                </mxCell>
                <mxCell id="30" value="+ books:Â vector&lt;Book&gt;" style="text;strokeColor=none;fillColor=none;align=left;verticalAlign=top;spacingLeft=4;spacingRight=4;overflow=hidden;rotatable=0;points=[[0,0.5],[1,0.5]];portConstraint=eastwest;" parent="29" vertex="1">
                    <mxGeometry y="30" width="210" height="24" as="geometry"/>
                </mxCell>
                <mxCell id="31" value="" style="line;strokeWidth=1;fillColor=none;align=left;verticalAlign=middle;spacingTop=-1;spacingLeft=3;spacingRight=3;rotatable=0;labelPosition=right;points=[];portConstraint=eastwest;strokeColor=inherit;" parent="29" vertex="1">
                    <mxGeometry y="54" width="210" height="22" as="geometry"/>
                </mxCell>
                <mxCell id="32" value="+ Book(int):&#10;+ getBookAt(int): Book&#10;+ appendBook(const Book):void&#10;+ getLength():int&#10;+ iteractor():shared_ptr&lt;Book&gt;" style="text;strokeColor=none;fillColor=none;align=left;verticalAlign=top;spacingLeft=4;spacingRight=4;overflow=hidden;rotatable=0;points=[[0,0.5],[1,0.5]];portConstraint=eastwest;" parent="29" vertex="1">
                    <mxGeometry y="76" width="210" height="82" as="geometry"/>
                </mxCell>
                <mxCell id="35" value="BookShelfIterator" style="swimlane;fontStyle=1;align=center;verticalAlign=top;childLayout=stackLayout;horizontal=1;startSize=26;horizontalStack=0;resizeParent=1;resizeParentMax=0;resizeLast=0;collapsible=1;marginBottom=0;" parent="1" vertex="1">
                    <mxGeometry x="514" y="605" width="160" height="128" as="geometry"/>
                </mxCell>
                <mxCell id="36" value="+ bookShelf: BookShelf&#10;+ index:int" style="text;strokeColor=none;fillColor=none;align=left;verticalAlign=top;spacingLeft=4;spacingRight=4;overflow=hidden;rotatable=0;points=[[0,0.5],[1,0.5]];portConstraint=eastwest;" parent="35" vertex="1">
                    <mxGeometry y="26" width="160" height="44" as="geometry"/>
                </mxCell>
                <mxCell id="37" value="" style="line;strokeWidth=1;fillColor=none;align=left;verticalAlign=middle;spacingTop=-1;spacingLeft=3;spacingRight=3;rotatable=0;labelPosition=right;points=[];portConstraint=eastwest;strokeColor=inherit;" parent="35" vertex="1">
                    <mxGeometry y="70" width="160" height="8" as="geometry"/>
                </mxCell>
                <mxCell id="38" value="+ hasNext(): bool&#10;+ next(Book): bool" style="text;strokeColor=none;fillColor=none;align=left;verticalAlign=top;spacingLeft=4;spacingRight=4;overflow=hidden;rotatable=0;points=[[0,0.5],[1,0.5]];portConstraint=eastwest;" parent="35" vertex="1">
                    <mxGeometry y="78" width="160" height="50" as="geometry"/>
                </mxCell>
                <mxCell id="43" value="" style="endArrow=diamondThin;endFill=0;endSize=24;html=1;rounded=1;sketch=0;fontFamily=Helvetica;startArrow=open;startFill=0;exitX=1;exitY=0.5;exitDx=0;exitDy=0;" parent="1" source="30" target="36" edge="1">
                    <mxGeometry width="160" relative="1" as="geometry">
                        <mxPoint x="420" y="750" as="sourcePoint"/>
                        <mxPoint x="580" y="750" as="targetPoint"/>
                    </mxGeometry>
                </mxCell>
                <mxCell id="44" value="" style="endArrow=diamondThin;endFill=0;endSize=24;html=1;rounded=1;sketch=0;fontFamily=Helvetica;startArrow=open;startFill=0;entryX=0.457;entryY=1;entryDx=0;entryDy=0;entryPerimeter=0;" parent="1" source="25" target="32" edge="1">
                    <mxGeometry width="160" relative="1" as="geometry">
                        <mxPoint x="480" y="830" as="sourcePoint"/>
                        <mxPoint x="525" y="830" as="targetPoint"/>
                    </mxGeometry>
                </mxCell>
                <mxCell id="45" value="Aggregate" style="swimlane;fontStyle=1;align=center;verticalAlign=top;childLayout=stackLayout;horizontal=1;startSize=31;horizontalStack=0;resizeParent=1;resizeParentMax=0;resizeLast=0;collapsible=1;marginBottom=0;fontFamily=Helvetica;" parent="1" vertex="1">
                    <mxGeometry x="160" y="405.5" width="210" height="78" as="geometry"/>
                </mxCell>
                <mxCell id="47" value="" style="line;strokeWidth=1;fillColor=none;align=left;verticalAlign=middle;spacingTop=-1;spacingLeft=3;spacingRight=3;rotatable=0;labelPosition=right;points=[];portConstraint=eastwest;strokeColor=inherit;fontFamily=Helvetica;" parent="45" vertex="1">
                    <mxGeometry y="31" width="210" height="8" as="geometry"/>
                </mxCell>
                <mxCell id="48" value="+ ~Aggregate():&#10;+ iterator(): shared_ptr&lt;Iterator_BC&gt;" style="text;strokeColor=none;fillColor=none;align=left;verticalAlign=top;spacingLeft=4;spacingRight=4;overflow=hidden;rotatable=0;points=[[0,0.5],[1,0.5]];portConstraint=eastwest;fontFamily=Helvetica;fontStyle=2" parent="45" vertex="1">
                    <mxGeometry y="39" width="210" height="39" as="geometry"/>
                </mxCell>
                <mxCell id="49" value="Iterator" style="swimlane;fontStyle=1;align=center;verticalAlign=top;childLayout=stackLayout;horizontal=1;startSize=45;horizontalStack=0;resizeParent=1;resizeParentMax=0;resizeLast=0;collapsible=1;marginBottom=0;fontFamily=Helvetica;" parent="1" vertex="1">
                    <mxGeometry x="515" y="386.5" width="160" height="140" as="geometry"/>
                </mxCell>
                <mxCell id="50" value="+ field: type" style="text;strokeColor=none;fillColor=none;align=left;verticalAlign=top;spacingLeft=4;spacingRight=4;overflow=hidden;rotatable=0;points=[[0,0.5],[1,0.5]];portConstraint=eastwest;fontFamily=Helvetica;" parent="49" vertex="1">
                    <mxGeometry y="45" width="160" height="26" as="geometry"/>
                </mxCell>
                <mxCell id="51" value="" style="line;strokeWidth=1;fillColor=none;align=left;verticalAlign=middle;spacingTop=-1;spacingLeft=3;spacingRight=3;rotatable=0;labelPosition=right;points=[];portConstraint=eastwest;strokeColor=inherit;fontFamily=Helvetica;" parent="49" vertex="1">
                    <mxGeometry y="71" width="160" height="8" as="geometry"/>
                </mxCell>
                <mxCell id="52" value="+ Iterator_BC():&#10;+ hasnext(type): bool&#10;+ next(Book):bool" style="text;strokeColor=none;fillColor=none;align=left;verticalAlign=top;spacingLeft=4;spacingRight=4;overflow=hidden;rotatable=0;points=[[0,0.5],[1,0.5]];portConstraint=eastwest;fontFamily=Helvetica;" parent="49" vertex="1">
                    <mxGeometry y="79" width="160" height="61" as="geometry"/>
                </mxCell>
                <mxCell id="53" value="" style="endArrow=block;dashed=1;endFill=0;endSize=12;html=1;rounded=1;sketch=0;fontFamily=Helvetica;exitX=0.5;exitY=0;exitDx=0;exitDy=0;entryX=0.5;entryY=1.047;entryDx=0;entryDy=0;entryPerimeter=0;" parent="1" source="29" target="48" edge="1">
                    <mxGeometry width="160" relative="1" as="geometry">
                        <mxPoint x="380" y="580" as="sourcePoint"/>
                        <mxPoint x="540" y="580" as="targetPoint"/>
                    </mxGeometry>
                </mxCell>
                <mxCell id="55" value="" style="endArrow=block;dashed=1;endFill=0;endSize=12;html=1;rounded=1;sketch=0;fontFamily=Helvetica;exitX=0.5;exitY=0;exitDx=0;exitDy=0;entryX=0.5;entryY=1.047;entryDx=0;entryDy=0;entryPerimeter=0;" parent="1" source="35" edge="1">
                    <mxGeometry width="160" relative="1" as="geometry">
                        <mxPoint x="594.5799999999999" y="622.78" as="sourcePoint"/>
                        <mxPoint x="594.5799999999999" y="530.0020000000002" as="targetPoint"/>
                    </mxGeometry>
                </mxCell>
                <mxCell id="65" value="" style="triangle;aspect=fixed;fillColor=strokeColor;fontFamily=Helvetica;fontColor=#000000;" parent="1" vertex="1">
                    <mxGeometry x="455" y="420" width="5" height="10" as="geometry"/>
                </mxCell>
                <mxCell id="66" value="" style="endArrow=open;html=1;rounded=0;align=center;verticalAlign=bottom;labelBackgroundColor=none;sketch=0;fontFamily=Helvetica;fontColor=#000000;exitX=1;exitY=0.5;exitDx=0;exitDy=0;entryX=0;entryY=0.5;entryDx=0;entryDy=0;endFill=0;" parent="1" source="45" target="50" edge="1">
                    <mxGeometry relative="1" as="geometry">
                        <mxPoint x="370" y="444.9999999999999" as="sourcePoint"/>
                        <mxPoint x="530" y="582" as="targetPoint"/>
                    </mxGeometry>
                </mxCell>
                <mxCell id="67" value="Create" style="text;html=1;align=center;verticalAlign=middle;resizable=0;points=[];autosize=1;strokeColor=none;fillColor=none;fontFamily=Helvetica;fontColor=#000000;" parent="1" vertex="1">
                    <mxGeometry x="395" y="410" width="60" height="30" as="geometry"/>
                </mxCell>
            </root>
        </mxGraphModel>
    </diagram>
</mxfile>